<svg xmlns="http://www.w3.org/2000/svg" viewBox="0 0 512 512"><path d="M220.59,105.05Q156.8,149,136.25,188T115.7,259.54v17a30.9,30.9,0,0,0,1.42,9.92q11.32-9.9,24.09-12.75a106.6,106.6,0,0,1,22.68-2.84q31.16,0,53.86,20.55t22.68,53.16q0,38.27-25.51,60.94t-56.7,22.68a100.94,100.94,0,0,1-72.29-31.89Q70.33,380,60.42,355.93T50.5,297.81q0-35.42,12.76-65.91a245.53,245.53,0,0,1,34-57.4,324.89,324.89,0,0,1,48.9-49.61A470.25,470.25,0,0,1,205,83.79Zm221.07,0Q377.88,149,357.32,188t-20.55,71.57v17a30.9,30.9,0,0,0,1.42,9.92q11.32-9.9,24.09-12.75A106.6,106.6,0,0,1,385,270.88q31.16,0,53.86,20.55t22.68,53.16q0,38.27-25.51,60.94t-56.7,22.68A100.94,100.94,0,0,1,307,396.32Q291.4,380,281.49,355.93t-9.92-58.12q0-35.42,12.76-65.91a245.53,245.53,0,0,1,34-57.4,324.89,324.89,0,0,1,48.9-49.61,469.62,469.62,0,0,1,58.83-41.1Z"/></svg>